<svg xmlns="http://www.w3.org/2000/svg" xmlns:xlink="http://www.w3.org/1999/xlink" id="Group_2867" data-name="Group 2867" width="188.609" height="59.743" viewBox="0 0 188.609 59.743"><defs><clipPath id="clip-path"><rect id="Rectangle_1027" data-name="Rectangle 1027" width="188.609" height="59.743" fill="none"></rect></clipPath></defs><g id="Group_2865" data-name="Group 2865" clip-path="url(#clip-path)"><path id="Path_2340" data-name="Path 2340" d="M167.128,3.385a1.438,1.438,0,0,1-.011.218,1.158,1.158,0,0,1-.011.145c-.011.077-.022.157-.033.24a12.955,12.955,0,0,1-.587,2.406L150.759,53.206c-2.022,6-8.075,8.292-13.436,5.092L108.034,40.851l-4.577-2.725a1.666,1.666,0,0,1-.583-2.253,1.63,1.63,0,0,1,.583-.6l15.991-9.546L160.4,1.3A12.822,12.822,0,0,1,162.611.23a.2.2,0,0,1,.06-.022c.088-.028.171-.056.252-.084l.06-.017A3.115,3.115,0,0,1,163.811,0a3.356,3.356,0,0,1,3.316,3.385" transform="translate(-76.267 0)" fill="#8a1a9b"></path><path id="Path_2341" data-name="Path 2341" d="M40.3,60.732,5.35,81.043a16.775,16.775,0,0,1-1.706.879c-.017.005-.034.017-.051.022a2.652,2.652,0,0,1-.991.2A2.594,2.594,0,0,1,0,79.555a2.415,2.415,0,0,1,.18-.929c.028-.067.056-.134.09-.207a17.592,17.592,0,0,1,.811-1.578L13.2,55.808A11.555,11.555,0,0,1,28.913,51.58l.074.042L40.3,58.169a1.481,1.481,0,0,1,0,2.563" transform="translate(0 -37.192)" fill="#8a1a9b"></path><path id="Path_2342" data-name="Path 2342" d="M359.115,80.828a37.237,37.237,0,0,1-6.4-.508,18.47,18.47,0,0,1-4.876-1.465l1.409-6.707a26.161,26.161,0,0,0,5.016,1.634,25.074,25.074,0,0,0,5.524.621,18.261,18.261,0,0,0,5.946-.734,4.146,4.146,0,0,0,2.564-3.326,3.5,3.5,0,0,0-.254-2.593,5.012,5.012,0,0,0-2.368-1.719,46.209,46.209,0,0,0-5.1-1.719q-5.355-1.578-7.186-3.945t-.93-6.538a12.039,12.039,0,0,1,4.989-7.721q3.918-2.706,11.581-2.706a37.048,37.048,0,0,1,6,.452,22.139,22.139,0,0,1,4.312,1.071l-1.465,6.707a23.714,23.714,0,0,0-9.244-1.747,17.957,17.957,0,0,0-5.748.761,3.987,3.987,0,0,0-2.706,3.185,3.015,3.015,0,0,0,.254,2.254,4.582,4.582,0,0,0,2.2,1.522,46.752,46.752,0,0,0,4.65,1.522,18.161,18.161,0,0,1,6.284,2.818,6.822,6.822,0,0,1,2.564,3.72,10.39,10.39,0,0,1-.057,4.678,13.922,13.922,0,0,1-2.451,5.523,11.267,11.267,0,0,1-5.242,3.664,27.131,27.131,0,0,1-9.271,1.3" transform="translate(-258.429 -32.245)" fill="#fff"></path><path id="Path_2343" data-name="Path 2343" d="M470.41,81.9l7.665-36.3h7.608l-6.424,30.436h17.866l-1.24,5.861Z" transform="translate(-349.49 -33.882)" fill="#fff"></path><path id="Path_2344" data-name="Path 2344" d="M585.961,81.9l7.665-36.3h7.609l-3.269,15.386L615.211,45.6h8.736L607.716,60.316,616.96,81.9h-8.116l-6.876-16.74-5.976,5.242-2.423,11.5Z" transform="translate(-435.338 -33.882)" fill="#fff"></path></g></svg>